<svg width="118" height="46" viewBox="0 0 118 46" fill="none" xmlns="http://www.w3.org/2000/svg">
<g clip-path="url(#clip0_307_1532)">
<path d="M0 22.9904V4.97998H6.89218V23.0936C6.89218 28.6547 9.01085 30.9537 13.6402 30.9537C18.3618 30.9537 20.3364 28.6604 20.3364 23.0936V22.5719H27.2285V22.999C27.2285 33.0635 22.7952 37.5696 13.5912 37.5696C4.57749 37.561 0 33.0549 0 22.9904Z" fill="#13141F"/>
<path d="M35.4927 45.994V13.6021H42.3849V20.264C43.0594 16.4772 44.9792 13.0747 49.9025 13.0747C55.3967 13.0747 58.9624 17.5322 58.9624 25.3434C58.9624 33.1089 55.3967 37.5663 49.6143 37.5663C44.6967 37.5663 43.0104 34.2096 42.3849 30.423V45.9997L35.4927 45.994ZM46.8672 32.2347C49.9976 32.2347 51.9751 29.7895 51.9751 25.3321C51.9751 20.8745 49.9976 18.4523 46.8672 18.4523C43.9846 18.4523 42.3849 20.2239 42.3849 24.0593V26.5991C42.3849 30.4172 43.976 32.2404 46.8672 32.2404V32.2347Z" fill="#13141F"/>
<path d="M62.5762 22.9904V4.97998H69.4684V23.0936C69.4684 28.6547 71.5871 30.9537 76.2135 30.9537C80.9381 30.9537 82.9126 28.6604 82.9126 23.0936V4.97998H89.8048V22.999C89.8048 33.0635 85.3715 37.5696 76.1675 37.5696C67.1537 37.561 62.5762 33.0549 62.5762 22.9904Z" fill="#13141F"/>
<path d="M94.5273 45.994V13.6021H101.42V20.264C102.094 16.4772 104.014 13.0747 108.937 13.0747C114.431 13.0747 118 17.5322 118 25.3434C118 33.1089 114.431 37.5663 108.649 37.5663C103.749 37.5663 102.048 34.2096 101.42 30.423V45.9997L94.5273 45.994ZM105.902 32.2347C109.035 32.2347 111.01 29.7895 111.01 25.3321C111.01 20.8745 109.035 18.4523 105.899 18.4523C103.016 18.4523 101.417 20.2239 101.417 24.0593V26.5991C101.42 30.4172 103.016 32.2404 105.899 32.2404L105.902 32.2347Z" fill="#13141F"/>
<path d="M23.4663 10.1284L15.8967 20.2559H31.0358L23.4663 10.1284Z" fill="#F17646"/>
<path d="M23.4663 10.1284L15.8967 20.2559H31.0358L23.4663 10.1284Z" fill="#FF602E"/>
<path d="M23.4663 0L15.8967 10.1275H31.0358L23.4663 0Z" fill="#F17646"/>
<path d="M23.4663 0L15.8967 10.1275H31.0358L23.4663 0Z" fill="#FF602E"/>
</g>
<defs>
<clipPath id="clip0_307_1532">
<rect width="118" height="46" fill="white"/>
</clipPath>
</defs>
</svg>
