<svg width="171" height="46" viewBox="0 0 171 46" fill="none" xmlns="http://www.w3.org/2000/svg">
<path fill-rule="evenodd" clip-rule="evenodd" d="M37.5571 0H0V24.9063H3.96843C6.53726 24.9063 9.00088 23.8858 10.8173 22.0694L20.2359 12.6508H6.32541V6.32541H24.9063H31.2317V12.6508V31.2317H24.9063L24.9063 16.9259L15.2901 26.5421C12.2874 29.5448 8.21486 31.2317 3.96843 31.2317H0V37.5571H37.5571V0Z" fill="#FF602E"/>
<path fill-rule="evenodd" clip-rule="evenodd" d="M79.9845 23.695V2.80957H72.4272V22.9622C72.4272 24.4557 72.3374 25.6802 72.1668 26.6478C72.0011 27.5582 71.6984 28.4098 71.2588 29.2067C70.8821 29.8894 70.29 30.4142 69.422 30.7716L69.4175 30.7735L69.413 30.7754C68.5575 31.1383 67.3934 31.3438 65.8777 31.3438C63.3988 31.3438 61.7096 30.7489 60.6377 29.7209C59.5729 28.6997 58.9616 27.1011 58.9616 24.7484V2.80957H51.4044V23.6034C51.4044 28.2521 52.5185 31.8875 54.9201 34.3229L54.9224 34.3252L54.9246 34.3274C57.3627 36.7655 61.0489 37.8934 65.786 37.8934C70.3547 37.8934 73.9495 36.7506 76.3956 34.3045C78.8417 31.8584 79.9845 28.2637 79.9845 23.695ZM141.038 23.695V2.80957H133.481V22.9622C133.481 24.4559 133.391 25.6805 133.22 26.6482C133.055 27.5585 132.752 28.4099 132.312 29.2067C131.936 29.8894 131.344 30.4142 130.476 30.7716L130.471 30.7735L130.467 30.7754C129.611 31.1383 128.447 31.3438 126.931 31.3438C124.452 31.3438 122.763 30.7489 121.691 29.7209C120.627 28.6997 120.015 27.1011 120.015 24.7484V2.80957H112.458V23.6034C112.458 28.2521 113.572 31.8875 115.974 34.3229L115.976 34.3252L115.978 34.3274C118.416 36.7655 122.102 37.8934 126.84 37.8934C131.408 37.8934 135.003 36.7506 137.449 34.3045C139.895 31.8584 141.038 28.2637 141.038 23.695ZM151.924 13.3587V11.7866H145.191V46.0002H152.199V35.5704C153.997 37.0938 156.275 37.8476 158.978 37.8476C162.395 37.8476 165.195 36.6344 167.278 34.1819C169.376 31.7177 170.382 28.4965 170.382 24.611C170.382 20.6362 169.362 17.3525 167.232 14.8561C165.087 12.3432 162.212 11.0996 158.703 11.0996C155.938 11.0996 153.652 11.8405 151.924 13.3587ZM153.555 29.9921C154.553 31.2175 155.911 31.8476 157.741 31.8476C159.466 31.8476 160.766 31.2276 161.74 29.9966C162.735 28.7402 163.283 26.9783 163.283 24.611C163.283 22.1827 162.72 20.3762 161.696 19.0899L161.69 19.0818L161.683 19.0737C160.706 17.7881 159.395 17.1454 157.649 17.1454C155.853 17.1454 154.527 17.7729 153.558 18.9964C152.568 20.2476 152.016 22.0514 152.016 24.5194C152.016 26.951 152.565 28.7394 153.555 29.9921ZM90.8705 13.3587V11.7866H84.1377V46.0002H91.1453V35.5704C92.9433 37.0938 95.2216 37.8476 97.9239 37.8476C101.342 37.8476 104.142 36.6342 106.225 34.1813C108.322 31.7172 109.328 28.4962 109.328 24.611C109.328 20.6362 108.308 17.3525 106.178 14.8561C104.034 12.3432 101.159 11.0996 97.6491 11.0996C94.8846 11.0996 92.5986 11.8405 90.8705 13.3587ZM92.5011 29.9919C93.4988 31.2175 94.8578 31.8476 96.6873 31.8476C98.412 31.8476 99.7121 31.2276 100.687 29.9966C101.681 28.7402 102.229 26.9783 102.229 24.611C102.229 22.1827 101.666 20.3762 100.642 19.0899L100.636 19.0818L100.63 19.0737C99.6527 17.7881 98.3417 17.1454 96.5957 17.1454C94.7996 17.1454 93.4734 17.7729 92.5047 18.9964C91.5142 20.2476 90.9621 22.0514 90.9621 24.5194C90.9621 26.9508 91.5115 28.7393 92.5011 29.9919Z" fill="#13141F"/>
</svg>
