<svg width="32" height="32" viewBox="0 0 32 32" fill="none" xmlns="http://www.w3.org/2000/svg">
<path d="M21.9692 8.66609C22.0682 8.56832 22.1242 8.43544 22.1247 8.29668C22.1252 8.15792 22.0702 8.02465 21.9718 7.92619C21.8734 7.82773 21.7397 7.77214 21.6001 7.77165C21.4605 7.77116 21.3264 7.82581 21.2273 7.92359L9.93692 19.1524C9.42531 19.678 9.14202 20.3824 9.14813 21.1137C9.15424 21.845 9.44925 22.5446 9.96957 23.0618C10.4899 23.5789 11.1938 23.8721 11.9297 23.8782C12.6655 23.8842 13.3742 23.6027 13.9031 23.0942L25.7335 11.3391C26.5445 10.5326 27 9.43898 27 8.29875C27 7.15851 26.5445 6.06494 25.7335 5.25837C25.3345 4.8584 24.8596 4.54119 24.3362 4.32517C23.8128 4.10915 23.2515 3.99863 22.6848 4.00001H22.6665C22.0994 3.999 21.5378 4.10969 21.0141 4.32567C20.4904 4.54166 20.0149 4.85867 19.6151 5.25837L6.70997 18.0842C5.89379 18.8963 5.33791 19.9304 5.11247 21.056C4.88703 22.1817 5.00212 23.3486 5.44323 24.4093C5.88434 25.47 6.6317 26.3772 7.59101 27.0162C8.55031 27.6552 9.67858 27.9976 10.8334 28H10.8544C11.621 28.0018 12.3803 27.8527 13.0885 27.5611C13.7967 27.2695 14.4398 26.8414 14.9805 26.3013L24.1266 17.2167C24.225 17.1189 24.2802 16.9863 24.2802 16.848C24.2802 16.7098 24.225 16.5771 24.1266 16.4794C24.0282 16.3816 23.8948 16.3267 23.7557 16.3267C23.6165 16.3267 23.4831 16.3816 23.3847 16.4794L14.2386 25.564C13.7954 26.0073 13.268 26.3588 12.6871 26.598C12.1062 26.8373 11.4832 26.9596 10.8544 26.9579H10.8361C9.8885 26.9551 8.96297 26.6736 8.1761 26.1489C7.38923 25.6243 6.77622 24.8798 6.41432 24.0095C6.05242 23.1391 5.95783 22.1818 6.14246 21.2581C6.32709 20.3344 6.78268 19.4857 7.45183 18.8189L20.357 5.99567C20.6598 5.69263 21.02 5.45231 21.4169 5.28863C21.8138 5.12495 22.2394 5.04117 22.6691 5.04213C23.3177 5.04098 23.9521 5.23116 24.4919 5.5886C25.0316 5.94604 25.4525 6.45464 25.7012 7.05C25.9499 7.64536 26.0153 8.30068 25.889 8.93297C25.7626 9.56526 25.4504 10.1461 24.9917 10.6018L13.1639 22.3569C12.8343 22.6844 12.3874 22.8684 11.9213 22.8684C11.4553 22.8684 11.0083 22.6844 10.6788 22.3569C10.3492 22.0294 10.1641 21.5852 10.1641 21.122C10.1641 20.8927 10.2095 20.6656 10.2979 20.4537C10.3862 20.2418 10.5156 20.0493 10.6788 19.8871L21.9692 8.66609Z" fill="#13141F"/>
</svg>
