<svg width="100" height="100" viewBox="0 0 100 100" fill="none" xmlns="http://www.w3.org/2000/svg">
<path d="M85.1496 47.042C85.6145 47.042 86 46.6565 86 46.1916V38.8896C86 38.4247 85.6145 38.0392 85.1496 38.0392H77.5414C77.0766 38.0392 76.691 38.4247 76.691 38.8896V41.6902H70.9877V31.3494C70.9877 31.3381 70.9991 31.3267 70.9991 31.304C70.9991 31.2814 70.9877 31.27 70.9877 31.2587V22.528C70.9877 20.5097 69.355 18.877 67.348 18.877H17.651C15.6441 18.877 14.0113 20.521 14.0113 22.528V31.27C14.0113 31.2814 14 31.2927 14 31.304C14 31.3154 14.0113 31.3267 14.0113 31.3381V65.5466C14.0113 67.5535 15.6441 69.1863 17.651 69.1863H33.0828V72.1343H30.8151C30.3502 72.1343 29.9647 72.5198 29.9647 72.9847V80.2867C29.9647 80.7516 30.3502 81.1371 30.8151 81.1371H38.4233C38.8882 81.1371 39.2737 80.7516 39.2737 80.2867V77.4861H76.7024V80.2867C76.7024 80.7516 77.0879 81.1371 77.5528 81.1371H85.1496C85.6145 81.1371 86 80.7516 86 80.2867V72.9847C86 72.5198 85.6145 72.1343 85.1496 72.1343H82.2016V47.042H85.1496ZM78.3918 39.7286H84.2992V45.3299H78.3918V39.7286ZM17.651 20.5664H67.3367C68.4025 20.5664 69.2756 21.4395 69.2756 22.5166V30.4423H15.7121V22.5166C15.7121 21.4395 16.5852 20.5664 17.651 20.5664ZM17.651 67.4855C16.5739 67.4855 15.7121 66.6124 15.7121 65.5466V32.1431H69.2869V41.6788H39.2737V38.8782C39.2737 38.4133 38.8882 38.0278 38.4233 38.0278H30.8151C30.3502 38.0278 29.9647 38.4133 29.9647 38.8782V46.1803C29.9647 46.6451 30.3502 47.0307 30.8151 47.0307H33.0828V67.4855H17.651ZM31.6655 45.3412V39.74H37.5729V45.3412H31.6655ZM37.5729 79.4363H31.6655V73.8351H37.5729V79.4363ZM84.2992 79.4363H78.3918V73.8351H84.2992V79.4363ZM80.5008 72.1343H77.5528C77.0879 72.1343 76.7024 72.5198 76.7024 72.9847V75.7853H39.2737V72.9847C39.2737 72.5198 38.8882 72.1343 38.4233 72.1343H34.7836V47.042H38.4233C38.8882 47.042 39.2737 46.6565 39.2737 46.1916V43.391H76.7024V46.1916C76.7024 46.6565 77.0879 47.042 77.5528 47.042H80.5008V72.1343Z" fill="#13141F"/>
<path d="M64.2073 57.8475L49.0022 52.7225C48.6847 52.6205 48.3333 52.6998 48.1065 52.9493C47.8797 53.1987 47.8117 53.5502 47.9477 53.8564L54.354 69.1748C54.4901 69.4923 54.7962 69.6964 55.1364 69.6964C55.1477 69.6964 55.1591 69.6964 55.1818 69.6964C55.5446 69.6737 55.8507 69.4356 55.9528 69.0954L58.1298 61.9748L64.264 59.4463C64.5928 59.3102 64.7969 58.9814 64.7855 58.6299C64.7742 58.2784 64.5474 57.9609 64.2073 57.8475ZM57.098 60.5575C56.8599 60.6595 56.6785 60.8523 56.6104 61.0904L55.0117 66.3401L50.2381 54.9335L61.5087 58.732L57.098 60.5575Z" fill="#13141F"/>
<path d="M46.179 47.4048H42.4939C42.0291 47.4048 41.6436 47.7903 41.6436 48.2552V51.9289C41.6436 52.3938 42.0291 52.7793 42.4939 52.7793C42.9588 52.7793 43.3443 52.3938 43.3443 51.9289V49.1056H46.179C46.6439 49.1056 47.0294 48.7201 47.0294 48.2552C47.0294 47.7903 46.6439 47.4048 46.179 47.4048Z" fill="#13141F"/>
<path d="M72.8019 66.9985C72.337 66.9985 71.9515 67.384 71.9515 67.8489V70.7176H68.9921C68.5272 70.7176 68.1417 71.1031 68.1417 71.568C68.1417 72.0329 68.5272 72.4184 68.9921 72.4184H72.8019C73.2668 72.4184 73.6523 72.0329 73.6523 71.568V67.8489C73.6523 67.3727 73.2781 66.9985 72.8019 66.9985Z" fill="#13141F"/>
<path d="M46.179 70.7176H43.3443V67.8489C43.3443 67.384 42.9588 66.9985 42.4939 66.9985C42.0291 66.9985 41.6436 67.384 41.6436 67.8489V71.568C41.6436 72.0329 42.0291 72.4184 42.4939 72.4184H46.179C46.6439 72.4184 47.0294 72.0329 47.0294 71.568C47.0294 71.1031 46.6439 70.7176 46.179 70.7176Z" fill="#13141F"/>
<path d="M72.8019 47.4048H68.9921C68.5272 47.4048 68.1417 47.7903 68.1417 48.2552C68.1417 48.7201 68.5272 49.1056 68.9921 49.1056H71.9515V51.9289C71.9515 52.3938 72.337 52.7793 72.8019 52.7793C73.2668 52.7793 73.6523 52.3938 73.6523 51.9289V48.2552C73.6523 47.779 73.2781 47.4048 72.8019 47.4048Z" fill="#13141F"/>
</svg>
