<svg width="100" height="100" viewBox="0 0 100 100" fill="none" xmlns="http://www.w3.org/2000/svg">
<path d="M70.9673 56.1175H29.0486C27.4797 56.1175 26.1961 54.8338 26.1961 53.265V46.8598C26.1961 45.2909 27.4797 44.0073 29.0486 44.0073H70.9803C72.5491 44.0073 73.8327 45.2909 73.8327 46.8598V53.265C73.8198 54.8338 72.5491 56.1175 70.9673 56.1175ZM29.0486 45.2909C28.1799 45.2909 27.4668 46.0041 27.4668 46.8728V53.2779C27.4668 54.1466 28.1799 54.8598 29.0486 54.8598H70.9803C71.849 54.8598 72.5621 54.1466 72.5621 53.2779V46.8728C72.5621 46.0041 71.849 45.2909 70.9803 45.2909H29.0486Z" fill="#13141F"/>
<path d="M58.9704 50.8146H37.8749C37.5248 50.8146 37.2396 50.5294 37.2396 50.1793C37.2396 49.8292 37.5248 49.5439 37.8749 49.5439H58.9704C59.3205 49.5439 59.6057 49.8292 59.6057 50.1793C59.6057 50.5294 59.3205 50.8146 58.9704 50.8146Z" fill="#13141F"/>
<path d="M70.9673 72.4033H29.0486C27.4797 72.4033 26.1961 71.1197 26.1961 69.5508V63.1457C26.1961 61.5768 27.4797 60.2932 29.0486 60.2932H70.9803C72.5491 60.2932 73.8327 61.5768 73.8327 63.1457V69.5508C73.8198 71.1197 72.5491 72.4033 70.9673 72.4033ZM29.0486 61.5768C28.1799 61.5768 27.4668 62.29 27.4668 63.1587V69.5638C27.4668 70.4325 28.1799 71.1457 29.0486 71.1457H70.9803C71.849 71.1457 72.5621 70.4325 72.5621 69.5638V63.1587C72.5621 62.29 71.849 61.5768 70.9803 61.5768H29.0486Z" fill="#13141F"/>
<path d="M58.9703 67.0998H37.8748C37.5248 67.0998 37.2395 66.8145 37.2395 66.4644C37.2395 66.1144 37.5248 65.8291 37.8748 65.8291H58.9703C59.3204 65.8291 59.6056 66.1144 59.6056 66.4644C59.6056 66.8145 59.3204 67.0998 58.9703 67.0998Z" fill="#13141F"/>
<path d="M70.9673 88.6868H29.0486C27.4797 88.6868 26.1961 87.4032 26.1961 85.8343V79.4292C26.1961 77.8603 27.4797 76.5767 29.0486 76.5767H70.9803C72.5491 76.5767 73.8327 77.8603 73.8327 79.4292V85.8343C73.8198 87.4032 72.5491 88.6868 70.9673 88.6868ZM29.0486 77.8603C28.1799 77.8603 27.4668 78.5734 27.4668 79.4421V85.8473C27.4668 86.716 28.1799 87.4291 29.0486 87.4291H70.9803C71.849 87.4291 72.5621 86.716 72.5621 85.8473V79.4421C72.5621 78.5734 71.849 77.8603 70.9803 77.8603H29.0486Z" fill="#13141F"/>
<path d="M58.9703 83.3856H37.8748C37.5248 83.3856 37.2395 83.1004 37.2395 82.7503C37.2395 82.4002 37.5248 82.115 37.8748 82.115H58.9703C59.3204 82.115 59.6056 82.4002 59.6056 82.7503C59.6056 83.1004 59.3204 83.3856 58.9703 83.3856Z" fill="#13141F"/>
<path d="M73.8586 66.9956H73.1843C72.8343 66.9956 72.549 66.7103 72.549 66.3603C72.549 66.0102 72.8343 65.7249 73.1843 65.7249H73.8586C82.8828 65.7249 90.2215 58.101 90.2215 48.7267C90.2215 39.3523 82.8828 31.7154 73.8586 31.7154C73.5733 31.7154 73.2881 31.7414 73.0028 31.7543L72.7046 31.7803C72.4193 31.7932 72.1471 31.6117 72.0563 31.3394C68.6852 20.8371 58.7274 13.7836 47.2785 13.7836C32.9771 13.7836 21.3467 24.9732 21.3467 38.73C21.3467 38.8207 21.3597 38.9245 21.3597 39.0152C21.3727 39.1449 21.3856 39.2745 21.3856 39.4042C21.3856 39.7283 21.1393 40.0006 20.8151 40.0395C14.5267 40.7527 9.78118 46.2502 9.78118 52.8368C9.78118 59.9422 15.3435 65.712 22.1766 65.712H26.8183C27.1684 65.712 27.4537 65.9972 27.4537 66.3473C27.4537 66.6974 27.1684 66.9826 26.8183 66.9826H22.1766C14.6434 66.9956 8.51053 60.6423 8.51053 52.8368C8.51053 45.8223 13.4376 39.9228 20.0761 38.8596C20.0761 38.8207 20.0761 38.7818 20.0761 38.73C20.0761 24.273 32.277 12.5 47.2915 12.5C59.1164 12.5 69.4372 19.6961 73.1325 30.4707C73.3788 30.4577 73.6252 30.4448 73.8715 30.4448C83.5959 30.4448 91.5051 38.6392 91.5051 48.7137C91.5051 58.7882 83.583 66.9956 73.8586 66.9956Z" fill="#13141F"/>
<path d="M34.0403 61.5767C33.6902 61.5767 33.405 61.2915 33.405 60.9414V55.4827C33.405 55.1327 33.6902 54.8474 34.0403 54.8474C34.3904 54.8474 34.6756 55.1327 34.6756 55.4827V60.9414C34.6756 61.2915 34.3904 61.5767 34.0403 61.5767Z" fill="#13141F"/>
<path d="M34.0403 77.8601C33.6902 77.8601 33.405 77.5749 33.405 77.2248V71.7662C33.405 71.4161 33.6902 71.1309 34.0403 71.1309C34.3904 71.1309 34.6756 71.4161 34.6756 71.7662V77.2248C34.6756 77.5749 34.3904 77.8601 34.0403 77.8601Z" fill="#13141F"/>
<path d="M64.6658 61.5767C64.3157 61.5767 64.0304 61.2915 64.0304 60.9414V55.4827C64.0304 55.1327 64.3157 54.8474 64.6658 54.8474C65.0158 54.8474 65.3011 55.1327 65.3011 55.4827V60.9414C65.3011 61.2915 65.0158 61.5767 64.6658 61.5767Z" fill="#13141F"/>
<path d="M64.6658 77.8601C64.3157 77.8601 64.0304 77.5749 64.0304 77.2248V71.7662C64.0304 71.4161 64.3157 71.1309 64.6658 71.1309C65.0158 71.1309 65.3011 71.4161 65.3011 71.7662V77.2248C65.3011 77.5749 65.0158 77.8601 64.6658 77.8601Z" fill="#13141F"/>
</svg>
