<svg width="100" height="100" viewBox="0 0 100 100" fill="none" xmlns="http://www.w3.org/2000/svg">
<path d="M50.4915 17.1702H39.9456C39.5728 17.1702 39.2684 17.4746 39.2684 17.8473C39.2684 18.2217 39.572 18.5253 39.9456 18.5253H50.4915C50.8659 18.5253 51.1695 18.2209 51.1695 17.8473C51.1695 17.4738 50.8659 17.1702 50.4915 17.1702Z" fill="black"/>
<path d="M50.4915 78.5251H39.9456C39.5728 78.5251 39.2684 78.8287 39.2684 79.204C39.2684 79.5784 39.572 79.882 39.9456 79.882H50.4915C50.8659 79.882 51.1695 79.5784 51.1695 79.204C51.1695 78.8287 50.8659 78.5251 50.4915 78.5251Z" fill="black"/>
<path d="M81.7526 49.9073C83.1948 49.6526 84.1658 48.2705 83.9119 46.8258L83.1533 42.53C82.8994 41.0861 81.5157 40.1183 80.071 40.3723L78.2975 40.6832C77.9467 39.9694 77.5487 39.2776 77.1027 38.6167L78.2592 37.2379C79.2034 36.1122 79.0561 34.4307 77.932 33.489L74.5909 30.6867C74.0505 30.2309 73.3603 30.0128 72.6497 30.0746C71.9384 30.1365 71.2986 30.4694 70.8436 31.0122L69.6879 32.391C68.9586 32.0671 68.2074 31.7936 67.4431 31.5739V29.7743C67.4431 28.4159 66.4192 27.2951 65.1007 27.1356V18.5073C65.1007 14.9187 62.1836 12 58.5934 12L31.9185 12C28.3299 12 25.4096 14.9187 25.4096 18.5073V47.3703L25.4089 78.3976C25.4089 81.9878 28.3276 84.9049 31.9162 84.9049H58.5927C62.1829 84.9049 65.1 81.9878 65.1 78.3976L65.1007 73.637C65.1007 73.6346 65.1039 73.6313 65.1039 73.6281V68.5338C65.5939 68.9879 66.2393 69.2443 66.9149 69.2443C67.216 69.2443 67.5229 69.1938 67.8208 69.0856L71.9172 67.5929C72.5838 67.3512 73.1185 66.862 73.4189 66.2157C73.72 65.5695 73.7526 64.85 73.5076 64.1834L72.8907 62.4847C73.5304 62.0184 74.1408 61.5048 74.7162 60.9529L76.2798 61.8556C76.69 62.0916 77.1442 62.2121 77.604 62.2121C77.8368 62.2121 78.0704 62.1795 78.3032 62.1177C78.9901 61.9345 79.5623 61.4926 79.9139 60.8813L82.0969 57.1023C82.831 55.8342 82.3947 54.2023 81.1242 53.4682L79.5664 52.5688C79.7552 51.7964 79.8936 51.0102 79.9766 50.2166L81.7526 49.9073ZM26.7656 18.5081C26.7656 15.6675 29.0763 13.356 31.9193 13.356H58.5942C61.4348 13.356 63.7479 15.6675 63.7479 18.5081V21.9257H26.7656V18.5081ZM63.7473 78.4C63.7473 81.2406 61.4341 83.5538 58.5935 83.5538H31.917C29.0764 83.5538 26.7649 81.2406 26.7649 78.4V74.9849H53.3047H63.7473V78.4ZM63.7479 73.6183C63.7479 73.6248 63.7479 73.6273 63.7479 73.6305H53.3047H26.7649L26.7656 47.372V47.3703V23.2809H63.7479V27.1144H60.4198C58.954 27.1144 57.7591 28.3076 57.7591 29.7751V31.5747C56.9924 31.7944 56.2404 32.0687 55.5111 32.3918L54.3578 31.0131C53.4144 29.8907 51.7337 29.7434 50.6089 30.6859L47.2686 33.4898C46.1446 34.4323 45.9972 36.1139 46.9398 37.2371L48.0971 38.6175C47.6519 39.28 47.2523 39.9718 46.9015 40.684L45.1304 40.3731C43.6833 40.1183 42.3013 41.0885 42.0489 42.5308L41.2912 46.8266C41.1691 47.5242 41.3254 48.2298 41.7331 48.8118C42.1417 49.3954 42.7505 49.7852 43.4481 49.9073L45.224 50.2199C45.3087 51.0151 45.4454 51.8021 45.6359 52.5721L44.078 53.4714C43.4643 53.8263 43.0248 54.4009 42.8401 55.0879C42.6553 55.7748 42.7489 56.4927 43.103 57.1056L45.2843 60.8846C45.6383 61.4983 46.2121 61.9378 46.8991 62.1234C47.131 62.1852 47.3654 62.2145 47.5966 62.2145C48.0564 62.2145 48.5114 62.0941 48.9184 61.858L50.4844 60.9554C51.0598 61.5072 51.6702 62.0208 52.3108 62.4872L51.6922 64.1858C51.4488 64.8492 51.4814 65.5719 51.7818 66.2182C52.0829 66.8644 52.6168 67.3544 53.2802 67.5953L57.3807 69.088C57.6786 69.1971 57.9854 69.2467 58.2857 69.2467C59.3748 69.2467 60.3979 68.5745 60.7902 67.4985L61.4071 65.8023C61.8051 65.8283 62.2039 65.8438 62.5987 65.8438C62.982 65.8438 63.3654 65.8283 63.7463 65.8047V73.6183H63.7479ZM78.107 52.9644C78.1103 52.988 78.1135 53.0116 78.1192 53.0352C78.1225 53.0555 78.1249 53.0734 78.1315 53.0938C78.1404 53.1141 78.1486 53.1353 78.1575 53.1589C78.164 53.176 78.173 53.1972 78.1811 53.2151C78.1933 53.2322 78.2047 53.2533 78.2161 53.2704C78.2283 53.2875 78.2397 53.3062 78.2519 53.3233C78.2674 53.3404 78.2845 53.3583 78.2991 53.3738C78.3146 53.3884 78.3292 53.4031 78.3439 53.4185C78.3642 53.4332 78.3854 53.4478 78.4057 53.4625C78.418 53.4714 78.4293 53.4804 78.4407 53.4861L80.447 54.6451C81.0697 55.0049 81.2846 55.805 80.9248 56.43L78.7419 60.2058C78.571 60.5061 78.2902 60.7218 77.9508 60.813C77.6146 60.9017 77.2606 60.8577 76.9602 60.6835L74.9507 59.5245C74.9385 59.518 74.9279 59.5123 74.9124 59.5066C74.8888 59.4944 74.8652 59.4838 74.8384 59.4741C74.8213 59.4684 74.8034 59.4627 74.7854 59.4594C74.7627 59.4529 74.7382 59.4472 74.7122 59.4423C74.6943 59.4391 74.6731 59.4391 74.6528 59.4391C74.63 59.4358 74.6056 59.4358 74.582 59.4358C74.5649 59.4358 74.5437 59.4391 74.5266 59.4423C74.4998 59.4448 74.4762 59.448 74.4526 59.4537C74.4355 59.4602 74.4176 59.4659 74.3997 59.4716C74.3769 59.4773 74.3524 59.4863 74.3321 59.4944C74.315 59.5042 74.2963 59.5148 74.2792 59.5245C74.2588 59.5359 74.2377 59.5473 74.2173 59.5628C74.2002 59.575 74.1848 59.5888 74.1669 59.6043C74.1547 59.6165 74.1408 59.6246 74.1286 59.6368C73.3855 60.3979 72.5683 61.0816 71.6983 61.6782C71.6828 61.6871 71.6747 61.6985 71.6624 61.7074C71.6421 61.7221 71.6242 61.7368 71.6071 61.7547C71.5916 61.7701 71.5778 61.7872 71.5623 61.8027C71.5477 61.8198 71.5363 61.8377 71.5241 61.8548C71.5086 61.8727 71.5005 61.8938 71.4883 61.9109C71.4769 61.9313 71.4687 61.9492 71.459 61.9663C71.45 61.9866 71.4443 62.0078 71.4386 62.0281C71.4297 62.0485 71.424 62.0696 71.4215 62.0932C71.4158 62.1136 71.4126 62.1348 71.4093 62.1551C71.4069 62.1755 71.4069 62.1999 71.4036 62.2202C71.4036 62.243 71.4069 62.2642 71.4069 62.2878C71.4093 62.3081 71.4093 62.3293 71.4158 62.3496C71.4183 62.3757 71.428 62.4001 71.4329 62.4237C71.4362 62.4383 71.4386 62.453 71.4451 62.4677L72.2355 64.6481C72.3559 64.9721 72.3388 65.3294 72.1915 65.6452C72.0434 65.9642 71.7845 66.2035 71.4573 66.3207L67.3601 67.8135C66.6813 68.0584 65.9325 67.7101 65.6875 67.0313L65.0502 65.2879V65.2846L64.8939 64.8516C64.8882 64.8361 64.8768 64.8223 64.8711 64.8036C64.8622 64.7832 64.8532 64.7654 64.8418 64.7483C64.8296 64.7279 64.8182 64.71 64.8028 64.6896C64.7914 64.6717 64.78 64.6571 64.7645 64.6392C64.7499 64.6213 64.7352 64.6066 64.7173 64.5911C64.7019 64.5765 64.688 64.5619 64.6693 64.5496C64.6522 64.535 64.6343 64.5269 64.6172 64.5146C64.5993 64.5024 64.5781 64.491 64.5578 64.4788C64.5407 64.4699 64.5195 64.4642 64.5024 64.4561C64.4821 64.4463 64.4609 64.4382 64.4373 64.4325C64.417 64.4259 64.3934 64.4235 64.373 64.4202C64.3527 64.4145 64.3315 64.4113 64.3112 64.4113C64.2875 64.408 64.2607 64.408 64.2371 64.408C64.22 64.4113 64.2045 64.408 64.1891 64.408C63.1456 64.5114 62.0713 64.5114 61.0156 64.408C60.9985 64.408 60.9831 64.4113 60.9684 64.408C60.9448 64.408 60.9212 64.408 60.8976 64.4113C60.8772 64.4113 60.8561 64.4145 60.8357 64.4202C60.8121 64.4235 60.7885 64.4259 60.7649 64.4357C60.7478 64.4382 60.7291 64.4471 60.712 64.4528C60.6884 64.4618 60.6648 64.4699 60.6412 64.4821C60.629 64.491 60.6152 64.4992 60.5997 64.5057C60.5761 64.5204 60.5525 64.535 60.5322 64.5529C60.52 64.5619 60.5086 64.5733 60.4996 64.5822C60.4793 64.5993 60.4581 64.6205 60.4377 64.6441C60.4255 64.6563 60.4174 64.6677 60.4084 64.6823C60.393 64.7027 60.3759 64.7238 60.3637 64.7474C60.3515 64.7645 60.3466 64.7857 60.3376 64.8028C60.3287 64.8207 60.3205 64.8353 60.314 64.8508L59.5205 67.0337C59.2722 67.7093 58.5226 68.0576 57.8446 67.8126L53.7473 66.3199C53.4234 66.2019 53.1605 65.9634 53.0132 65.6444C52.8659 65.3253 52.8512 64.9721 52.9684 64.6473L53.7628 62.4668C53.7685 62.4522 53.7685 62.4375 53.775 62.4229C53.7807 62.3993 53.7864 62.3749 53.7921 62.3513C53.7954 62.3285 53.7954 62.3073 53.7978 62.287C53.8011 62.2634 53.8011 62.2422 53.8011 62.2194C53.8011 62.1991 53.7978 62.1746 53.7954 62.1543C53.7921 62.1339 53.7889 62.1128 53.7856 62.0892C53.7799 62.0688 53.7742 62.0477 53.7685 62.0273C53.7595 62.007 53.7539 61.9858 53.7449 61.9655C53.736 61.9484 53.7278 61.9305 53.7156 61.9101C53.7067 61.893 53.6953 61.8719 53.6839 61.854C53.6717 61.8369 53.657 61.819 53.6423 61.8019C53.6269 61.7864 53.6155 61.7693 53.5976 61.7538C53.5805 61.7368 53.5618 61.7213 53.5414 61.7067C53.53 61.6944 53.5211 61.6863 53.5064 61.6773C52.6396 61.084 51.8224 60.3971 51.0777 59.636C51.0671 59.6263 51.0557 59.6181 51.0452 59.6092C51.0264 59.5921 51.0069 59.5742 50.9849 59.5587C50.9678 59.5465 50.9524 59.5384 50.9345 59.5294C50.9141 59.5139 50.8929 59.5034 50.871 59.4936C50.8539 59.4846 50.8343 59.479 50.8148 59.4733C50.7936 59.4643 50.7709 59.4586 50.7473 59.4529C50.7302 59.4472 50.7106 59.4439 50.6927 59.4439C50.6675 59.4382 50.6423 59.435 50.6179 59.435C50.6 59.435 50.5829 59.435 50.5649 59.435C50.5397 59.4383 50.5137 59.4382 50.4868 59.4439C50.4697 59.4472 50.4526 59.4505 50.4355 59.4562C50.4103 59.4627 50.3851 59.4684 50.3615 59.4765C50.3428 59.483 50.3232 59.492 50.3053 59.5001C50.289 59.5091 50.2711 59.5148 50.2548 59.5237L48.2461 60.6827C47.9449 60.8569 47.5925 60.9017 47.2547 60.8121C46.917 60.721 46.6354 60.5053 46.4628 60.205L44.2815 56.4292C44.1073 56.1281 44.0634 55.774 44.1529 55.4379C44.2424 55.0984 44.4598 54.8177 44.7593 54.6435L46.7631 53.4845C46.7786 53.4788 46.7884 53.4674 46.7998 53.4584C46.8201 53.443 46.8413 53.4316 46.8608 53.4136C46.8779 53.4014 46.8917 53.3844 46.908 53.3689C46.9227 53.3542 46.9389 53.3396 46.9528 53.3217C46.9674 53.3046 46.9788 53.2834 46.991 53.2655C47.0032 53.2484 47.0146 53.2305 47.0236 53.2134C47.0342 53.1931 47.0423 53.1719 47.0496 53.1516C47.0586 53.1337 47.0659 53.1125 47.0732 53.0922C47.0789 53.0718 47.0838 53.0507 47.0863 53.0303C47.0903 53.0075 47.0952 52.9864 47.0985 52.966C47.1001 52.9424 47.1001 52.9212 47.1001 52.8976C47.1001 52.8773 47.1001 52.8561 47.0985 52.8333C47.096 52.8097 47.0912 52.7853 47.0855 52.7593C47.0822 52.7438 47.0822 52.73 47.0781 52.7145C46.7949 51.7028 46.6109 50.6512 46.5312 49.5899C46.5296 49.5736 46.5255 49.559 46.5222 49.5443C46.519 49.5191 46.5165 49.4955 46.51 49.4702C46.5043 49.4499 46.497 49.4304 46.4897 49.4116C46.4823 49.3897 46.475 49.3685 46.4644 49.3481C46.4555 49.3294 46.4441 49.3099 46.4319 49.292C46.4213 49.2733 46.4099 49.2537 46.3961 49.2374C46.3847 49.2195 46.37 49.2049 46.3562 49.1886C46.3399 49.1723 46.3252 49.1544 46.309 49.1398C46.2935 49.1268 46.278 49.1146 46.2618 49.1032C46.2422 49.0885 46.2251 49.0739 46.204 49.0617C46.1869 49.0511 46.1673 49.0429 46.1494 49.034C46.1291 49.0234 46.1079 49.0136 46.086 49.0055C46.064 48.9965 46.042 48.9925 46.0192 48.9868C46.0029 48.9827 45.9883 48.9762 45.9704 48.9737L43.6857 48.5709C43.3455 48.5106 43.0468 48.3202 42.8466 48.0329C42.6455 47.7464 42.5674 47.4004 42.6276 47.0594L43.3846 42.7628C43.5099 42.0547 44.1887 41.5801 44.8976 41.7038L47.1774 42.1067C47.1994 42.1108 47.2214 42.1092 47.2442 42.1108C47.2604 42.1124 47.2784 42.1165 47.2946 42.1165C47.2987 42.1165 47.302 42.1149 47.3068 42.1149C47.3158 42.1149 47.3256 42.1133 47.3345 42.1133C47.3654 42.1124 47.3964 42.1075 47.4273 42.1019C47.4379 42.0986 47.4493 42.097 47.4598 42.0945C47.4965 42.0856 47.5323 42.0742 47.5673 42.0595L47.5697 42.0579C47.6064 42.0416 47.6405 42.0213 47.6747 41.9993C47.6821 41.9952 47.6894 41.9887 47.6967 41.983C47.7219 41.9643 47.7455 41.9448 47.7675 41.9228C47.7748 41.9155 47.7822 41.9081 47.7895 41.9008C47.8163 41.8731 47.8399 41.843 47.8619 41.8097C47.8636 41.808 47.8644 41.8056 47.866 41.8023C47.8823 41.7763 47.8986 41.7494 47.9116 41.7201C48.347 40.7597 48.8818 39.8351 49.5003 38.9723C49.5093 38.9601 49.515 38.9471 49.5223 38.9357C49.5353 38.9137 49.55 38.8918 49.5606 38.869C49.5695 38.8503 49.5752 38.8291 49.5825 38.8112C49.5915 38.7892 49.5988 38.7672 49.6045 38.7461C49.6102 38.7241 49.6135 38.7021 49.6159 38.681C49.6192 38.659 49.6232 38.6378 49.6249 38.6159C49.6249 38.5955 49.6249 38.5735 49.6232 38.5524C49.6232 38.5304 49.6216 38.5084 49.6192 38.4856C49.6159 38.4653 49.6118 38.4441 49.607 38.4238C49.6013 38.4034 49.5964 38.3806 49.5891 38.3587C49.5817 38.3383 49.5728 38.3172 49.5638 38.2984C49.5549 38.2789 49.5467 38.2586 49.5362 38.239C49.5223 38.2187 49.5077 38.1991 49.4946 38.1788C49.4841 38.1666 49.4784 38.1519 49.4678 38.1405L47.9783 36.3646C47.5168 35.8135 47.5876 34.9874 48.1387 34.5259L51.479 31.722C52.0308 31.2589 52.8561 31.3313 53.3168 31.8815L54.8063 33.6575C54.8095 33.6615 54.8128 33.6632 54.8152 33.6664C54.8421 33.6957 54.8681 33.7242 54.8982 33.7478C54.9072 33.7552 54.9153 33.7617 54.9275 33.7682C54.9479 33.7844 54.9723 33.7991 54.9983 33.8129C55.0105 33.8203 55.0219 33.8276 55.0374 33.8333C55.0635 33.8471 55.0928 33.8585 55.1221 33.8675C55.131 33.8699 55.1375 33.8732 55.1457 33.8764C55.1807 33.8854 55.2165 33.8911 55.2523 33.8951C55.2637 33.8968 55.2751 33.8968 55.2873 33.8984C55.2995 33.8984 55.3133 33.8992 55.3255 33.8992C55.3378 33.8992 55.3459 33.8984 55.3548 33.8968C55.3849 33.8968 55.4143 33.8927 55.4403 33.8878C55.4606 33.8846 55.4786 33.8821 55.4965 33.8756C55.5258 33.8683 55.5551 33.8569 55.5844 33.8447C55.5966 33.8406 55.608 33.8374 55.6194 33.8325C56.5725 33.3726 57.5752 33.008 58.6015 32.7475C58.617 32.7435 58.6308 32.7369 58.6431 32.7329C58.6699 32.7239 58.6935 32.7166 58.7171 32.706C58.7342 32.6971 58.7529 32.6873 58.77 32.6767C58.7904 32.6645 58.8115 32.6547 58.8286 32.6417C58.8457 32.6287 58.8644 32.6132 58.8791 32.5986C58.8962 32.5839 58.9116 32.5709 58.9271 32.5562C58.9418 32.54 58.9564 32.5221 58.9686 32.505C58.9833 32.4887 58.9947 32.4724 59.0069 32.4537C59.0191 32.4358 59.0272 32.4171 59.0394 32.3975C59.0484 32.3772 59.0565 32.3577 59.0655 32.3373C59.0744 32.317 59.0809 32.2942 59.0858 32.2738C59.0907 32.2535 59.098 32.2323 59.1005 32.212C59.107 32.1867 59.107 32.1631 59.1102 32.1371C59.1102 32.1224 59.1127 32.1078 59.1127 32.0931V29.7759C59.1127 29.0564 59.7003 28.4704 60.419 28.4704H64.7783C65.4987 28.4704 66.0847 29.0564 66.0847 29.7759V32.0931C66.0847 32.1119 66.0879 32.1314 66.0912 32.1501C66.0912 32.1696 66.0944 32.1884 66.0969 32.2079C66.1001 32.2348 66.1091 32.2592 66.1148 32.2844C66.1205 32.3023 66.1237 32.3186 66.1294 32.3349C66.1417 32.3601 66.1531 32.3837 66.1653 32.4073C66.1742 32.422 66.1799 32.4366 66.188 32.4513C66.2035 32.4732 66.2174 32.4928 66.2361 32.5131C66.2483 32.5278 66.2564 32.5416 66.2678 32.5546C66.2857 32.5733 66.3036 32.5888 66.324 32.6051C66.3394 32.6189 66.35 32.6303 66.3687 32.6417C66.3891 32.6564 66.4102 32.6686 66.4306 32.68C66.4477 32.6906 66.4623 32.6987 66.4811 32.7076C66.5039 32.7182 66.5315 32.7264 66.5576 32.7345C66.5698 32.7386 66.5812 32.7467 66.5958 32.7491C67.623 33.0104 68.6257 33.3751 69.578 33.8341C69.5902 33.839 69.6016 33.8414 69.6138 33.8463C69.6431 33.8585 69.6724 33.8699 69.7017 33.8772C69.7221 33.8829 69.74 33.8862 69.7579 33.8894C69.7872 33.8935 69.8132 33.8968 69.8409 33.8984C69.8531 33.8984 69.8613 33.9008 69.8735 33.9008C69.8881 33.9008 69.8995 33.9 69.9142 33.8984C69.9264 33.8984 69.9345 33.8984 69.9443 33.8968C69.9825 33.8927 70.0208 33.8862 70.059 33.8748C70.0623 33.8748 70.0623 33.8748 70.0655 33.8732C70.1005 33.8626 70.1364 33.8496 70.1689 33.8333C70.1779 33.8276 70.1893 33.8227 70.1982 33.817C70.2275 33.8024 70.2536 33.7828 70.2812 33.7641C70.2869 33.76 70.2926 33.7568 70.2983 33.7527C70.3309 33.7258 70.3602 33.6982 70.3862 33.6672C70.3862 33.6648 70.3895 33.6632 70.3927 33.6599L71.8789 31.884C72.1028 31.6194 72.4153 31.4558 72.7669 31.4265C73.1153 31.3956 73.4514 31.5014 73.72 31.7261L77.0595 34.5284C77.6114 34.9915 77.6846 35.816 77.2215 36.367L75.732 38.143C75.7198 38.1576 75.7117 38.1723 75.7027 38.1869C75.6873 38.204 75.6759 38.2211 75.6669 38.2398C75.6522 38.2618 75.6433 38.2846 75.6319 38.3074C75.6254 38.3237 75.6164 38.3399 75.6116 38.3578C75.6018 38.3831 75.5961 38.4091 75.5912 38.4343C75.588 38.4506 75.5847 38.4669 75.5815 38.4832C75.579 38.51 75.5757 38.5361 75.5757 38.563C75.5757 38.5809 75.5757 38.5971 75.5757 38.6142C75.5757 38.6395 75.5815 38.6655 75.5847 38.6907C75.588 38.7086 75.5912 38.7257 75.5969 38.742C75.6026 38.7689 75.6124 38.7933 75.6205 38.8201C75.6262 38.8348 75.6327 38.8494 75.6376 38.8641C75.6531 38.8918 75.6669 38.917 75.6848 38.9439C75.6913 38.9528 75.6946 38.9634 75.7003 38.974C76.3197 39.8335 76.8536 40.7581 77.2899 41.7201C77.3053 41.7494 77.3192 41.7763 77.3346 41.8023C77.3379 41.804 77.3379 41.8072 77.3403 41.808C77.3607 41.8422 77.3851 41.8731 77.4111 41.9008C77.4201 41.9081 77.429 41.9155 77.4347 41.9228C77.4583 41.9448 77.4795 41.9643 77.5023 41.9814C77.5121 41.9871 77.5202 41.9952 77.5292 42.0009C77.5617 42.0213 77.5934 42.0416 77.6293 42.0579C77.6325 42.0579 77.635 42.0595 77.6382 42.0612C77.674 42.0742 77.7058 42.0864 77.7416 42.0953C77.7538 42.0978 77.7652 42.0994 77.7774 42.1027C77.8067 42.1084 77.8384 42.1132 77.871 42.1141C77.8775 42.1157 77.8865 42.1157 77.8946 42.1173C77.9003 42.1173 77.9035 42.1173 77.9068 42.1173C77.9272 42.1173 77.9451 42.1133 77.9621 42.1116C77.9825 42.11 78.0037 42.1116 78.024 42.1076L80.3046 41.7063C81.0152 41.581 81.694 42.0571 81.8177 42.7652L82.5762 47.0602C82.6991 47.7683 82.2246 48.4463 81.5165 48.5717L79.2335 48.9746C79.2164 48.977 79.2009 48.9835 79.183 48.9876C79.1594 48.9933 79.1383 48.9998 79.1147 49.0063C79.0943 49.0136 79.0764 49.0242 79.056 49.0332C79.0357 49.0437 79.0178 49.0519 78.9975 49.0641C78.9804 49.0747 78.9617 49.0877 78.947 49.0991C78.9267 49.1137 78.9087 49.1276 78.8941 49.1422C78.8794 49.1553 78.8648 49.1699 78.8526 49.1846C78.8355 49.2025 78.82 49.2196 78.8054 49.2391C78.7932 49.2537 78.785 49.27 78.7761 49.2863C78.7606 49.3083 78.7492 49.3294 78.737 49.3514C78.728 49.3685 78.7223 49.388 78.7167 49.4059C78.7077 49.4279 78.6996 49.4499 78.6939 49.4735C78.6874 49.4938 78.6849 49.5158 78.6817 49.5386C78.6784 49.5565 78.6752 49.5728 78.6727 49.5899C78.5929 50.6488 78.4098 51.7004 78.1266 52.7178C78.1209 52.7332 78.1209 52.7471 78.1176 52.765C78.1119 52.7886 78.1054 52.8097 78.1054 52.8333C78.1021 52.8561 78.1021 52.8806 78.1021 52.9009C78.1021 52.9212 78.1038 52.9432 78.107 52.9644Z" fill="black"/>
<path d="M62.5997 38.0242C57.0008 38.0242 52.4437 42.5797 52.4437 48.1802C52.4437 53.7816 57.0008 58.3362 62.5997 58.3362C68.2011 58.3362 72.7557 53.7816 72.7557 48.1802C72.7557 42.5797 68.2011 38.0242 62.5997 38.0242ZM62.5997 56.9819C57.7471 56.9819 53.8005 53.0312 53.8005 48.1794C53.8005 43.3276 57.7471 39.3785 62.5997 39.3785C67.4547 39.3785 71.4014 43.3268 71.4014 48.1794C71.4014 53.032 67.4523 56.9819 62.5997 56.9819Z" fill="black"/>
</svg>
