<svg width="100" height="100" viewBox="0 0 100 100" fill="none" xmlns="http://www.w3.org/2000/svg">
<path d="M88.7374 6.25H23.1525C21.0809 6.25 19.3988 7.90441 19.3988 9.95273V21.4898H11.2538C9.18212 21.4898 7.5 23.1443 7.5 25.1838V90.0473C7.5 92.0956 9.18212 93.75 11.2538 93.75H76.8386C78.9014 93.75 80.5835 92.0956 80.5835 90.0473V78.5102H88.7462C90.809 78.5102 92.5 76.8557 92.5 74.8162V9.95273C92.4911 7.90441 90.8002 6.25 88.7374 6.25ZM78.6358 90.0473C78.6358 91.0277 77.8302 91.8242 76.8386 91.8242H11.2538C10.2534 91.8242 9.44771 91.0277 9.44771 90.0473V31.0487H78.6447V90.0473H78.6358ZM78.6358 29.1229H9.43886V25.1838C9.43886 24.2122 10.2445 23.4156 11.2449 23.4156H76.8298C77.8213 23.4156 78.627 24.2122 78.627 25.1838V29.1229H78.6358ZM90.5523 74.8162C90.5523 75.7878 89.7378 76.5844 88.7462 76.5844H80.5835V25.1838C80.5835 23.1443 78.9014 21.4898 76.8386 21.4898H21.3465V9.95273C21.3465 8.97234 22.1521 8.17577 23.1525 8.17577H88.7374C89.7289 8.17577 90.5434 8.97234 90.5434 9.95273V74.8162H90.5523ZM64.3732 26.2693C64.3732 27.0133 63.7624 27.6173 63.0098 27.6173C62.2573 27.6173 61.6464 27.0133 61.6464 26.2693C61.6464 25.5165 62.2573 24.9212 63.0098 24.9212C63.7624 24.9212 64.3732 25.5252 64.3732 26.2693ZM69.9596 26.2693C69.9596 27.0133 69.3576 27.6173 68.5962 27.6173C67.8437 27.6173 67.2328 27.0133 67.2328 26.2693C67.2328 25.5165 67.8437 24.9212 68.5962 24.9212C69.3576 24.9212 69.9596 25.5252 69.9596 26.2693ZM75.5637 26.2693C75.5637 27.0133 74.9529 27.6173 74.2003 27.6173C73.4478 27.6173 72.8369 27.0133 72.8369 26.2693C72.8369 25.5165 73.4478 24.9212 74.2003 24.9212C74.9529 24.9212 75.5637 25.5252 75.5637 26.2693ZM75.9533 11.5896C75.9533 12.3424 75.3424 12.9377 74.5899 12.9377C73.8374 12.9377 73.2265 12.3424 73.2265 11.5896C73.2265 10.8456 73.8374 10.2416 74.5899 10.2416C75.3424 10.2416 75.9533 10.8456 75.9533 11.5896ZM81.5485 11.5896C81.5485 12.3424 80.9465 12.9377 80.1851 12.9377C79.4326 12.9377 78.8217 12.3424 78.8217 11.5896C78.8217 10.8456 79.4326 10.2416 80.1851 10.2416C80.9465 10.2416 81.5485 10.8456 81.5485 11.5896ZM87.1438 11.5896C87.1438 12.3424 86.5329 12.9377 85.7804 12.9377C85.0279 12.9377 84.417 12.3424 84.417 11.5896C84.417 10.8456 85.0279 10.2416 85.7804 10.2416C86.5329 10.2416 87.1438 10.8456 87.1438 11.5896ZM15.1935 80.0158C15.1935 79.4818 15.6273 79.0529 16.1673 79.0529H31.9527C32.4927 79.0529 32.9265 79.4818 32.9265 80.0158C32.9265 80.5497 32.4927 80.9786 31.9527 80.9786H16.1673C15.6361 80.9786 15.1935 80.5497 15.1935 80.0158ZM15.1935 86.7384C15.1935 86.2045 15.6273 85.7756 16.1673 85.7756H44.0373C44.5774 85.7756 45.0112 86.2045 45.0112 86.7384C45.0112 87.2724 44.5774 87.7013 44.0373 87.7013H16.1673C15.6361 87.7013 15.1935 87.2724 15.1935 86.7384ZM15.1935 35.653C15.1935 35.119 15.6273 34.6901 16.1673 34.6901H26.6496C27.1896 34.6901 27.6234 35.119 27.6234 35.653C27.6234 36.187 27.1896 36.6159 26.6496 36.6159H16.1673C15.6361 36.6159 15.1935 36.187 15.1935 35.653ZM15.1935 42.3844C15.1935 41.8505 15.6273 41.4216 16.1673 41.4216H34.6706C35.2107 41.4216 35.6445 41.8505 35.6445 42.3844C35.6445 42.9184 35.2107 43.3473 34.6706 43.3473H16.1673C15.6361 43.3386 15.1935 42.9097 15.1935 42.3844Z" fill="#13141F"/>
<path fill-rule="evenodd" clip-rule="evenodd" d="M54.2986 51.878C54.6421 51.4906 55.2346 51.455 55.622 51.7986L63.3465 58.6478C64.3098 59.502 64.3307 60.9993 63.3917 61.8801L56.6708 68.1838C56.2931 68.538 55.6998 68.519 55.3456 68.1414C54.9914 67.7637 55.0104 67.1704 55.3881 66.8162L62.1089 60.5125C62.2431 60.3867 62.2401 60.1728 62.1025 60.0507L54.378 53.2015C53.9906 52.858 53.955 52.2654 54.2986 51.878Z" fill="#13141F"/>
<path fill-rule="evenodd" clip-rule="evenodd" d="M36.9907 51.9254C36.6733 51.5163 36.0844 51.4419 35.6753 51.7593L26.9129 58.5578C25.8036 59.4184 25.7808 61.0864 26.8661 61.9771L34.4788 68.2247C34.879 68.5532 35.4698 68.495 35.7982 68.0948C36.1267 67.6946 36.0685 67.1038 35.6683 66.7754L28.0556 60.5277C27.9005 60.4004 27.9038 60.1621 28.0623 60.0392L36.8247 53.2407C37.2338 52.9234 37.3081 52.3344 36.9907 51.9254Z" fill="#13141F"/>
<path fill-rule="evenodd" clip-rule="evenodd" d="M49.1429 51.6489C49.613 51.8659 49.8182 52.4228 49.6012 52.893L42.1012 69.143C41.8842 69.6131 41.3272 69.8183 40.8571 69.6013C40.387 69.3843 40.1818 68.8273 40.3988 68.3572L47.8988 52.1072C48.1158 51.6371 48.6728 51.4319 49.1429 51.6489Z" fill="#13141F"/>
</svg>
