<svg width="100" height="100" viewBox="0 0 100 100" fill="none" xmlns="http://www.w3.org/2000/svg">
<path d="M82.1869 87.0814H17.8172C14.484 87.0814 11.7721 84.3814 11.7721 81.0482V18.9484C11.7721 15.6153 14.484 12.9033 17.8172 12.9033H82.1988C85.532 12.9033 88.2439 15.6153 88.2439 18.9484V81.0482C88.232 84.3814 85.5201 87.0814 82.1869 87.0814ZM17.8172 14.0861C15.1292 14.0861 12.9548 16.2723 12.9548 18.9484V81.0482C12.9548 83.7363 15.1411 85.9106 17.8172 85.9106H82.1988C84.8869 85.9106 87.0612 83.7243 87.0612 81.0482V18.9484C87.0612 16.2604 84.8749 14.0861 82.1988 14.0861H17.8172Z" fill="#13141F"/>
<path d="M12.3575 28.0904H87.6466C87.9968 28.0904 88.282 27.8052 88.282 27.455C88.282 27.1048 87.9968 26.8196 87.6466 26.8196H12.3575C12.0073 26.8196 11.7221 27.1048 11.7221 27.455C11.7221 27.8052 12.0073 28.0904 12.3575 28.0904Z" fill="#13141F" stroke="black" stroke-width="0.1"/>
<path d="M22.3809 23.9532C20.4933 23.9532 18.9521 22.412 18.9521 20.5244C18.9521 18.6368 20.4933 17.0837 22.3809 17.0837C24.2685 17.0837 25.8096 18.6249 25.8096 20.5125C25.8096 22.4001 24.2804 23.9532 22.3809 23.9532ZM22.3809 18.2665C21.1384 18.2665 20.1349 19.27 20.1349 20.5244C20.1349 21.7669 21.1504 22.7824 22.3928 22.7824C23.6353 22.7824 24.6508 21.7669 24.6508 20.5244C24.6389 19.27 23.6353 18.2665 22.3809 18.2665Z" fill="#13141F"/>
<path d="M32.8224 23.9539C30.9348 23.9539 29.3937 22.4128 29.3937 20.5252C29.3937 18.6376 30.9348 17.0964 32.8224 17.0964C34.71 17.0964 36.2512 18.6376 36.2512 20.5252C36.2512 22.4128 34.71 23.9539 32.8224 23.9539ZM32.8224 18.2672C31.58 18.2672 30.5645 19.2827 30.5645 20.5252C30.5645 21.7677 31.58 22.7831 32.8224 22.7831C34.0649 22.7831 35.0804 21.7677 35.0804 20.5252C35.0804 19.2708 34.0649 18.2672 32.8224 18.2672Z" fill="#13141F"/>
<path d="M81.506 21.1105H51.5194C51.1968 21.1105 50.934 20.8477 50.934 20.5251C50.934 20.2025 51.1968 19.9397 51.5194 19.9397H81.506C81.8285 19.9397 82.0914 20.2025 82.0914 20.5251C82.0914 20.8477 81.8285 21.1105 81.506 21.1105Z" fill="#13141F"/>
<path d="M88.294 81.0484V81.0482V18.9484C88.294 15.5876 85.5596 12.8533 82.1988 12.8533H17.8172C14.4564 12.8533 11.7221 15.5876 11.7221 18.9484V81.0482C11.7221 84.4091 14.4565 87.1314 17.8172 87.1314H82.1869C85.5476 87.1314 88.2819 84.4091 88.294 81.0484ZM13.0048 18.9484C13.0048 16.2999 15.1569 14.1361 17.8172 14.1361H82.1988C84.8474 14.1361 87.0112 16.2881 87.0112 18.9484V81.0482C87.0112 83.6968 84.8592 85.8606 82.1988 85.8606H17.8172C15.1686 85.8606 13.0048 83.7086 13.0048 81.0482V18.9484Z" fill="#13141F" stroke="black" stroke-width="0.1"/>
<path d="M18.9021 20.5244C18.9021 22.4397 20.4657 24.0032 22.3809 24.0032C24.3084 24.0032 25.8596 22.4274 25.8596 20.5125C25.8596 18.5973 24.2961 17.0337 22.3809 17.0337C20.4655 17.0337 18.9021 18.6094 18.9021 20.5244ZM20.1849 20.5244C20.1849 19.2975 21.1662 18.3165 22.3809 18.3165C23.6075 18.3165 24.589 19.2975 24.6008 20.5247C24.6007 21.7394 23.6076 22.7324 22.3928 22.7324C21.178 22.7324 20.1849 21.7393 20.1849 20.5244Z" fill="#13141F" stroke="black" stroke-width="0.1"/>
<path d="M29.3438 20.5252C29.3438 22.4404 30.9073 24.0039 32.8225 24.0039C34.7378 24.0039 36.3013 22.4404 36.3013 20.5252C36.3013 18.61 34.7378 17.0464 32.8225 17.0464C30.9073 17.0464 29.3438 18.61 29.3438 20.5252ZM30.6146 20.5252C30.6146 19.3103 31.6077 18.3172 32.8225 18.3172C34.0376 18.3172 35.0305 19.2986 35.0305 20.5252C35.0305 21.74 34.0374 22.7331 32.8225 22.7331C31.6077 22.7331 30.6146 21.74 30.6146 20.5252Z" fill="#13141F" stroke="black" stroke-width="0.1"/>
<path d="M51.5194 21.1605H81.506C81.8562 21.1605 82.1414 20.8753 82.1414 20.5251C82.1414 20.1749 81.8562 19.8897 81.506 19.8897H51.5194C51.1692 19.8897 50.884 20.1749 50.884 20.5251C50.884 20.8753 51.1692 21.1605 51.5194 21.1605Z" fill="#13141F" stroke="black" stroke-width="0.1"/>
</svg>
